<svg xmlns="http://www.w3.org/2000/svg" xmlns:xlink="http://www.w3.org/1999/xlink" contentStyleType="text/css" height="1264px" preserveAspectRatio="none" style="width:301px;height:1264px;background:#FFFFFF;" version="1.1" viewBox="0 0 301 1264" width="301px" zoomAndPan="magnify"><defs/><g><ellipse cx="149.02" cy="16" fill="#222222" rx="10" ry="10" style="stroke:#222222;stroke-width:1.0;"/><path d="M55.35,87 L242.6859,87 A12.5,12.5 0 0 1 255.1859,99.5 L255.1859,113.2969 L42.85,113.2969 L42.85,99.5 A12.5,12.5 0 0 1 55.35,87 " fill="#F1F1F1" style="stroke:#F1F1F1;stroke-width:1.0;"/><rect fill="none" height="153.2969" rx="12.5" ry="12.5" style="stroke:#181818;stroke-width:0.5;" width="212.3359" x="42.85" y="87"/><line style="stroke:#181818;stroke-width:0.5;" x1="42.85" x2="255.1859" y1="113.2969" y2="113.2969"/><text fill="#000000" font-family="sans-serif" font-size="14" lengthAdjust="spacing" textLength="25.5186" x="136.2587" y="104.9951">Idle</text><ellipse cx="150.52" cy="134.2969" fill="#222222" rx="10" ry="10" style="stroke:#222222;stroke-width:1.0;"/><g id="Idle.WaitingForLoginRequest"><rect fill="#F1F1F1" height="50" rx="12.5" ry="12.5" style="stroke:#181818;stroke-width:0.5;" width="191.3359" x="54.85" y="180.2969"/><line style="stroke:#181818;stroke-width:0.5;" x1="54.85" x2="246.1859" y1="206.5938" y2="206.5938"/><text fill="#000000" font-family="sans-serif" font-size="14" lengthAdjust="spacing" textLength="171.3359" x="64.85" y="198.292">WaitingForLoginRequest</text></g><!--link *start*Idle to WaitingForLoginRequest--><g id="link_*start*Idle_WaitingForLoginRequest"><path d="M150.52,144.6069 C150.52,153.6469 150.52,161.7869 150.52,174.0269 " fill="none" id="*start*Idle-to-WaitingForLoginRequest" style="stroke:#181818;stroke-width:1.0;"/><polygon fill="#181818" points="150.52,180.0269,154.52,171.0269,150.52,175.0269,146.52,171.0269,150.52,180.0269" style="stroke:#181818;stroke-width:1.0;"/></g><g id="LoginValidation"><rect fill="#F1F1F1" height="50.2656" rx="12.5" ry="12.5" style="stroke:#181818;stroke-width:0.5;" width="136.4609" x="67.79" y="317.29"/><line style="stroke:#181818;stroke-width:0.5;" x1="67.79" x2="204.2509" y1="343.5869" y2="343.5869"/><text fill="#000000" font-family="sans-serif" font-size="14" lengthAdjust="spacing" textLength="108.2334" x="81.9038" y="335.2851">LoginValidation</text><text fill="#000000" font-family="sans-serif" font-size="12" lengthAdjust="spacing" textLength="116.4609" x="72.79" y="359.7255">validateCredentials</text></g><g id="DisplayHomepage"><rect fill="#F1F1F1" height="50.2656" rx="12.5" ry="12.5" style="stroke:#181818;stroke-width:0.5;" width="147.9141" x="62.07" y="444.56"/><line style="stroke:#181818;stroke-width:0.5;" x1="62.07" x2="209.9841" y1="470.8569" y2="470.8569"/><text fill="#000000" font-family="sans-serif" font-size="14" lengthAdjust="spacing" textLength="127.9141" x="72.07" y="462.5551">DisplayHomepage</text><text fill="#000000" font-family="sans-serif" font-size="12" lengthAdjust="spacing" textLength="108.0176" x="67.07" y="486.9955">displayHomepage</text></g><g id="FetchingPatientQueue"><rect fill="#F1F1F1" height="50.2656" rx="12.5" ry="12.5" style="stroke:#181818;stroke-width:0.5;" width="175.7432" x="48.15" y="571.83"/><line style="stroke:#181818;stroke-width:0.5;" x1="48.15" x2="223.8932" y1="598.1269" y2="598.1269"/><text fill="#000000" font-family="sans-serif" font-size="14" lengthAdjust="spacing" textLength="155.7432" x="58.15" y="589.8251">FetchingPatientQueue</text><text fill="#000000" font-family="sans-serif" font-size="12" lengthAdjust="spacing" textLength="112.2598" x="53.15" y="614.2655">fetchPatientQueue</text></g><g id="DisplayPatientQueue"><rect fill="#F1F1F1" height="50.2656" rx="12.5" ry="12.5" style="stroke:#181818;stroke-width:0.5;" width="166.9727" x="53.54" y="699.09"/><line style="stroke:#181818;stroke-width:0.5;" x1="53.54" x2="220.5127" y1="725.3869" y2="725.3869"/><text fill="#000000" font-family="sans-serif" font-size="14" lengthAdjust="spacing" textLength="146.9727" x="63.54" y="717.0851">DisplayPatientQueue</text><text fill="#000000" font-family="sans-serif" font-size="12" lengthAdjust="spacing" textLength="124.3535" x="58.54" y="741.5255">displayPatientQueue</text></g><g id="FetchingPatientFile"><rect fill="#F1F1F1" height="50.2656" rx="12.5" ry="12.5" style="stroke:#181818;stroke-width:0.5;" width="154.1963" x="62.92" y="826.36"/><line style="stroke:#181818;stroke-width:0.5;" x1="62.92" x2="217.1163" y1="852.6569" y2="852.6569"/><text fill="#000000" font-family="sans-serif" font-size="14" lengthAdjust="spacing" textLength="134.1963" x="72.92" y="844.3551">FetchingPatientFile</text><text fill="#000000" font-family="sans-serif" font-size="12" lengthAdjust="spacing" textLength="93.791" x="67.92" y="868.7955">fetchPatientFile</text></g><g id="DisplayPatientFile"><rect fill="#F1F1F1" height="50.2656" rx="12.5" ry="12.5" style="stroke:#181818;stroke-width:0.5;" width="145.4258" x="67.31" y="953.62"/><line style="stroke:#181818;stroke-width:0.5;" x1="67.31" x2="212.7358" y1="979.9169" y2="979.9169"/><text fill="#000000" font-family="sans-serif" font-size="14" lengthAdjust="spacing" textLength="125.4258" x="77.31" y="971.6151">DisplayPatientFile</text><text fill="#000000" font-family="sans-serif" font-size="12" lengthAdjust="spacing" textLength="105.8848" x="72.31" y="996.0555">displayPatientFile</text></g><g id="FetchingVirtualTriage"><rect fill="#F1F1F1" height="50.2656" rx="12.5" ry="12.5" style="stroke:#181818;stroke-width:0.5;" width="170.7051" x="54.67" y="1080.89"/><line style="stroke:#181818;stroke-width:0.5;" x1="54.67" x2="225.3751" y1="1107.1869" y2="1107.1869"/><text fill="#000000" font-family="sans-serif" font-size="14" lengthAdjust="spacing" textLength="150.7051" x="64.67" y="1098.8851">FetchingVirtualTriage</text><text fill="#000000" font-family="sans-serif" font-size="12" lengthAdjust="spacing" textLength="107.9414" x="59.67" y="1123.3255">fetchVirtualTriage</text></g><g id="DisplayVirtualTriage"><rect fill="#F1F1F1" height="50.2656" rx="12.5" ry="12.5" style="stroke:#181818;stroke-width:0.5;" width="161.9346" x="133.05" y="1208.15"/><line style="stroke:#181818;stroke-width:0.5;" x1="133.05" x2="294.9846" y1="1234.4469" y2="1234.4469"/><text fill="#000000" font-family="sans-serif" font-size="14" lengthAdjust="spacing" textLength="141.9346" x="143.05" y="1226.1451">DisplayVirtualTriage</text><text fill="#000000" font-family="sans-serif" font-size="12" lengthAdjust="spacing" textLength="120.0352" x="138.05" y="1250.5855">displayVirtualTriage</text></g><!--link *start* to Idle--><g id="link_*start*_Idle"><path d="M149.02,26.11 C149.02,38.63 149.02,56.36 149.02,80.57 " fill="none" id="*start*-to-Idle" style="stroke:#181818;stroke-width:1.0;"/><polygon fill="#181818" points="149.02,86.57,153.02,77.57,149.02,81.57,145.02,77.57,149.02,86.57" style="stroke:#181818;stroke-width:1.0;"/></g><!--link Idle to LoginValidation--><g id="link_Idle_LoginValidation"><path d="M42.6,235.91 C33.17,246.34 24.96,257.82 19.02,270.29 C6,297.66 29.2855,313.49 61.6455,324.42 " fill="none" id="Idle-to-LoginValidation" style="stroke:#181818;stroke-width:1.0;"/><polygon fill="#181818" points="67.33,326.34,60.0833,319.6703,62.5929,324.74,57.5232,327.2496,67.33,326.34" style="stroke:#181818;stroke-width:1.0;"/><text fill="#000000" font-family="sans-serif" font-size="13" lengthAdjust="spacing" textLength="85.0586" x="20.02" y="283.3569">loginRequest</text></g><!--link LoginValidation to Idle--><g id="link_LoginValidation_Idle"><path d="M137.81,317.14 C139.27,297.3 140.9708,274.1439 142.9908,246.6239 " fill="none" id="LoginValidation-to-Idle" style="stroke:#181818;stroke-width:1.0;"/><polygon fill="#181818" points="143.43,240.64,138.7819,249.323,143.064,245.6266,146.7604,249.9087,143.43,240.64" style="stroke:#181818;stroke-width:1.0;"/><text fill="#000000" font-family="sans-serif" font-size="13" lengthAdjust="spacing" textLength="115.248" x="142.02" y="283.3569">credentialsInvalid</text></g><!--link LoginValidation to DisplayHomepage--><g id="link_LoginValidation_DisplayHomepage"><path d="M136.02,367.88 C136.02,389.95 136.02,416.25 136.02,438.31 " fill="none" id="LoginValidation-to-DisplayHomepage" style="stroke:#181818;stroke-width:1.0;"/><polygon fill="#181818" points="136.02,444.31,140.02,435.31,136.02,439.31,132.02,435.31,136.02,444.31" style="stroke:#181818;stroke-width:1.0;"/><text fill="#000000" font-family="sans-serif" font-size="13" lengthAdjust="spacing" textLength="104.3745" x="137.02" y="410.6269">credentialsValid</text></g><!--link DisplayHomepage to FetchingPatientQueue--><g id="link_DisplayHomepage_FetchingPatientQueue"><path d="M134.92,495.21 C134.56,504.49 134.2,515.14 134.02,524.83 C133.73,540.39 133.9613,551.8652 134.5313,565.6052 " fill="none" id="DisplayHomepage-to-FetchingPatientQueue" style="stroke:#181818;stroke-width:1.0;"/><polygon fill="#181818" points="134.78,571.6,138.4035,562.4419,134.5728,566.6043,130.4104,562.7735,134.78,571.6" style="stroke:#181818;stroke-width:1.0;"/><text fill="#000000" font-family="sans-serif" font-size="13" lengthAdjust="spacing" textLength="127.1816" x="135.02" y="537.8969">selectPatientQueue</text></g><!--link FetchingPatientQueue to DisplayPatientQueue--><g id="link_FetchingPatientQueue_DisplayPatientQueue"><path d="M134.04,622.32 C133.17,636.05 132.45,653.53 133.02,669.09 C133.38,678.79 133.629,683.4685 134.359,692.7385 " fill="none" id="FetchingPatientQueue-to-DisplayPatientQueue" style="stroke:#181818;stroke-width:1.0;"/><polygon fill="#181818" points="134.83,698.72,138.1111,689.4338,134.4375,693.7354,130.1358,690.0618,134.83,698.72" style="stroke:#181818;stroke-width:1.0;"/><text fill="#000000" font-family="sans-serif" font-size="13" lengthAdjust="spacing" textLength="128.8193" x="134.02" y="665.1569">returnPatientQueue</text></g><!--link DisplayPatientQueue to FetchingPatientFile--><g id="link_DisplayPatientQueue_FetchingPatientFile"><path d="M137.61,749.67 C138.14,771.75 138.7658,798.0517 139.2958,820.1017 " fill="none" id="DisplayPatientQueue-to-FetchingPatientFile" style="stroke:#181818;stroke-width:1.0;"/><polygon fill="#181818" points="139.44,826.1,143.2226,817.0065,139.3199,821.1014,135.2249,817.1987,139.44,826.1" style="stroke:#181818;stroke-width:1.0;"/><text fill="#000000" font-family="sans-serif" font-size="13" lengthAdjust="spacing" textLength="107.1738" x="140.02" y="792.4269">selectPatientFile</text></g><!--link FetchingPatientFile to DisplayPatientFile--><g id="link_FetchingPatientFile_DisplayPatientFile"><path d="M140.02,876.94 C140.02,899.01 140.02,925.31 140.02,947.37 " fill="none" id="FetchingPatientFile-to-DisplayPatientFile" style="stroke:#181818;stroke-width:1.0;"/><polygon fill="#181818" points="140.02,953.37,144.02,944.37,140.02,948.37,136.02,944.37,140.02,953.37" style="stroke:#181818;stroke-width:1.0;"/><text fill="#000000" font-family="sans-serif" font-size="13" lengthAdjust="spacing" textLength="108.8115" x="141.02" y="919.6869">returnPatientFile</text></g><!--link DisplayPatientFile to FetchingVirtualTriage--><g id="link_DisplayPatientFile_FetchingVirtualTriage"><path d="M139.4,1004.12 C139.12,1017.85 138.88,1035.33 139.02,1050.89 C139.11,1060.57 139.1736,1065.2211 139.3536,1074.5011 " fill="none" id="DisplayPatientFile-to-FetchingVirtualTriage" style="stroke:#181818;stroke-width:1.0;"/><polygon fill="#181818" points="139.47,1080.5,143.2947,1071.4241,139.373,1075.5009,135.2962,1071.5793,139.47,1080.5" style="stroke:#181818;stroke-width:1.0;"/><text fill="#000000" font-family="sans-serif" font-size="13" lengthAdjust="spacing" textLength="122.5034" x="140.02" y="1046.9569">selectVirtualTriage</text></g><!--link FetchingVirtualTriage to DisplayVirtualTriage--><g id="link_FetchingVirtualTriage_DisplayVirtualTriage"><path d="M133.17,1131.39 C130.51,1145.77 129.62,1163.89 137.02,1178.15 C143.2,1190.05 148.4555,1196.3577 159.3555,1204.2277 " fill="none" id="FetchingVirtualTriage-to-DisplayVirtualTriage" style="stroke:#181818;stroke-width:1.0;"/><polygon fill="#181818" points="164.22,1207.74,159.2647,1199.2285,160.1662,1204.8131,154.5817,1205.7146,164.22,1207.74" style="stroke:#181818;stroke-width:1.0;"/><text fill="#000000" font-family="sans-serif" font-size="13" lengthAdjust="spacing" textLength="124.1411" x="138.02" y="1174.2169">returnVirtualTriage</text></g><!--link DisplayVirtualTriage to Idle--><g id="link_DisplayVirtualTriage_Idle"><path d="M242.95,1207.72 C251.68,1199.11 260.63,1188.89 267.02,1178.15 C283.96,1149.73 289.02,1140.11 289.02,1107.02 C289.02,341.43 289.02,341.43 289.02,341.43 C289.02,303.45 272.8897,273.3691 247.9197,245.0691 " fill="none" id="DisplayVirtualTriage-to-Idle" style="stroke:#181818;stroke-width:1.0;"/><polygon fill="#181818" points="243.95,240.57,246.9051,249.9651,247.2581,244.3192,252.9039,244.6722,243.95,240.57" style="stroke:#181818;stroke-width:1.0;"/></g><!--SRC=[TPAnJiCm48RtUmhFI7q11XPGH2K6G5KPAWOhFi99nYds1QcgU7TYEwXsVDsItz_zbo_9uUPTRJPtQcii0WJMZEbQdK6fmtBufed93TtedyQ1t2j-JnWOVW4I6f5qiDUMZ6OQdRfLjaJRuvzyW_SU3JecRKD3nU872aUhJu_Z5nxrWFDaVvb8h3YM7gnYjowj16WRJPqqH2piaFlF-IKypplcnfS9fpWQq6BFPGXm1Vs8SKMAO26zAl38atVrBfaqRIgIWbX7jl6AMQErWALLuYIiTLgcAwMyHkHC4qfSgRCdpvEsEq_v6sUXAhqehU4aLRCoMeYjExBQQk4LrWYnpFx_sty0]--></g></svg>