<svg xmlns="http://www.w3.org/2000/svg" xmlns:xlink="http://www.w3.org/1999/xlink" contentStyleType="text/css" height="853px" preserveAspectRatio="none" style="width:1107px;height:853px;background:#FFFFFF;" version="1.1" viewBox="0 0 1107 853" width="1107px" zoomAndPan="magnify"><defs/><g><!--cluster Client Device--><g id="cluster_Client Device"><polygon fill="#ADD8E6" points="374,154.8,384,144.8,614,144.8,614,237.09,604,247.09,374,247.09,374,154.8" style="stroke:#000000;stroke-width:1.0;"/><line style="stroke:#000000;stroke-width:1.0;" x1="604" x2="614" y1="154.8" y2="144.8"/><line style="stroke:#000000;stroke-width:1.0;" x1="374" x2="604" y1="154.8" y2="154.8"/><line style="stroke:#000000;stroke-width:1.0;" x1="604" x2="604" y1="154.8" y2="247.09"/><text fill="#000000" font-family="sans-serif" font-size="14" font-weight="bold" lengthAdjust="spacing" textLength="103.7354" x="438.1323" y="170.7951">Client Device</text></g><!--cluster Web Server--><g id="cluster_Web Server"><polygon fill="#ADD8E6" points="193,306.09,203,296.09,574,296.09,574,388.39,564,398.39,193,398.39,193,306.09" style="stroke:#000000;stroke-width:1.0;"/><line style="stroke:#000000;stroke-width:1.0;" x1="564" x2="574" y1="306.09" y2="296.09"/><line style="stroke:#000000;stroke-width:1.0;" x1="193" x2="564" y1="306.09" y2="306.09"/><line style="stroke:#000000;stroke-width:1.0;" x1="564" x2="564" y1="306.09" y2="398.39"/><text fill="#000000" font-family="sans-serif" font-size="14" font-weight="bold" lengthAdjust="spacing" textLength="91.8408" x="333.5796" y="322.0851">Web Server</text></g><!--cluster Application Server--><g id="cluster_Application Server"><polygon fill="#ADD8E6" points="246,457.39,256,447.39,729,447.39,729,539.69,719,549.69,246,549.69,246,457.39" style="stroke:#000000;stroke-width:1.0;"/><line style="stroke:#000000;stroke-width:1.0;" x1="719" x2="729" y1="457.39" y2="447.39"/><line style="stroke:#000000;stroke-width:1.0;" x1="246" x2="719" y1="457.39" y2="457.39"/><line style="stroke:#000000;stroke-width:1.0;" x1="719" x2="719" y1="457.39" y2="549.69"/><text fill="#000000" font-family="sans-serif" font-size="14" font-weight="bold" lengthAdjust="spacing" textLength="146.1797" x="410.4102" y="473.3851">Application Server</text></g><!--cluster Database Server--><g id="cluster_Database Server"><polygon fill="#ADD8E6" points="16,608.69,26,598.69,453,598.69,453,690.98,443,700.98,16,700.98,16,608.69" style="stroke:#000000;stroke-width:1.0;"/><line style="stroke:#000000;stroke-width:1.0;" x1="443" x2="453" y1="608.69" y2="598.69"/><line style="stroke:#000000;stroke-width:1.0;" x1="16" x2="443" y1="608.69" y2="608.69"/><line style="stroke:#000000;stroke-width:1.0;" x1="443" x2="443" y1="608.69" y2="700.98"/><text fill="#000000" font-family="sans-serif" font-size="14" font-weight="bold" lengthAdjust="spacing" textLength="131.3867" x="164.8066" y="624.6851">Database Server</text></g><!--cluster External Systems--><g id="cluster_External Systems"><polygon fill="#ADD8E6" points="279,743.98,289,733.98,780,733.98,780,826.28,770,836.28,279,836.28,279,743.98" style="stroke:#000000;stroke-width:1.0;"/><line style="stroke:#000000;stroke-width:1.0;" x1="770" x2="780" y1="743.98" y2="733.98"/><line style="stroke:#000000;stroke-width:1.0;" x1="279" x2="770" y1="743.98" y2="743.98"/><line style="stroke:#000000;stroke-width:1.0;" x1="770" x2="770" y1="743.98" y2="836.28"/><text fill="#000000" font-family="sans-serif" font-size="14" font-weight="bold" lengthAdjust="spacing" textLength="137.4229" x="456.7886" y="759.9751">External Systems</text></g><!--cluster Notification Service--><g id="cluster_Notification Service"><polygon fill="#ADD8E6" points="804,743.98,814,733.98,1090,733.98,1090,826.28,1080,836.28,804,836.28,804,743.98" style="stroke:#000000;stroke-width:1.0;"/><line style="stroke:#000000;stroke-width:1.0;" x1="1080" x2="1090" y1="743.98" y2="733.98"/><line style="stroke:#000000;stroke-width:1.0;" x1="804" x2="1080" y1="743.98" y2="743.98"/><line style="stroke:#000000;stroke-width:1.0;" x1="1080" x2="1080" y1="743.98" y2="836.28"/><text fill="#000000" font-family="sans-serif" font-size="14" font-weight="bold" lengthAdjust="spacing" textLength="155.6133" x="865.1934" y="759.9751">Notification Service</text></g><!--entity Mister Ed User Interface--><g id="elem_Mister Ed User Interface"><rect fill="#F1F1F1" height="46.2969" rx="2.5" ry="2.5" style="stroke:#181818;stroke-width:0.5;" width="208.793" x="389.6" y="184.8"/><rect fill="#F1F1F1" height="10" style="stroke:#181818;stroke-width:0.5;" width="15" x="578.393" y="189.8"/><rect fill="#F1F1F1" height="2" style="stroke:#181818;stroke-width:0.5;" width="4" x="576.393" y="191.8"/><rect fill="#F1F1F1" height="2" style="stroke:#181818;stroke-width:0.5;" width="4" x="576.393" y="195.8"/><text fill="#000000" font-family="sans-serif" font-size="14" lengthAdjust="spacing" textLength="168.793" x="404.6" y="217.7951">Mister Ed User Interface</text></g><!--entity Frontend Application--><g id="elem_Frontend Application"><rect fill="#F1F1F1" height="46.2969" rx="2.5" ry="2.5" style="stroke:#181818;stroke-width:0.5;" width="185.7832" x="209.11" y="336.09"/><rect fill="#F1F1F1" height="10" style="stroke:#181818;stroke-width:0.5;" width="15" x="374.8932" y="341.09"/><rect fill="#F1F1F1" height="2" style="stroke:#181818;stroke-width:0.5;" width="4" x="372.8932" y="343.09"/><rect fill="#F1F1F1" height="2" style="stroke:#181818;stroke-width:0.5;" width="4" x="372.8932" y="347.09"/><text fill="#000000" font-family="sans-serif" font-size="14" lengthAdjust="spacing" textLength="145.7832" x="224.11" y="369.0851">Frontend Application</text></g><!--entity API Gateway--><g id="elem_API Gateway"><rect fill="#F1F1F1" height="46.2969" rx="2.5" ry="2.5" style="stroke:#181818;stroke-width:0.5;" width="128.4434" x="429.78" y="336.09"/><rect fill="#F1F1F1" height="10" style="stroke:#181818;stroke-width:0.5;" width="15" x="538.2234" y="341.09"/><rect fill="#F1F1F1" height="2" style="stroke:#181818;stroke-width:0.5;" width="4" x="536.2234" y="343.09"/><rect fill="#F1F1F1" height="2" style="stroke:#181818;stroke-width:0.5;" width="4" x="536.2234" y="347.09"/><text fill="#000000" font-family="sans-serif" font-size="14" lengthAdjust="spacing" textLength="88.4434" x="444.78" y="369.0851">API Gateway</text></g><!--entity Virtual Triage Module--><g id="elem_Virtual Triage Module"><rect fill="#F1F1F1" height="46.2969" rx="2.5" ry="2.5" style="stroke:#181818;stroke-width:0.5;" width="190.1377" x="261.93" y="487.39"/><rect fill="#F1F1F1" height="10" style="stroke:#181818;stroke-width:0.5;" width="15" x="432.0677" y="492.39"/><rect fill="#F1F1F1" height="2" style="stroke:#181818;stroke-width:0.5;" width="4" x="430.0677" y="494.39"/><rect fill="#F1F1F1" height="2" style="stroke:#181818;stroke-width:0.5;" width="4" x="430.0677" y="498.39"/><text fill="#000000" font-family="sans-serif" font-size="14" lengthAdjust="spacing" textLength="150.1377" x="276.93" y="520.3851">Virtual Triage Module</text></g><!--entity Load Management Module--><g id="elem_Load Management Module"><rect fill="#F1F1F1" height="46.2969" rx="2.5" ry="2.5" style="stroke:#181818;stroke-width:0.5;" width="225.8623" x="487.07" y="487.39"/><rect fill="#F1F1F1" height="10" style="stroke:#181818;stroke-width:0.5;" width="15" x="692.9323" y="492.39"/><rect fill="#F1F1F1" height="2" style="stroke:#181818;stroke-width:0.5;" width="4" x="690.9323" y="494.39"/><rect fill="#F1F1F1" height="2" style="stroke:#181818;stroke-width:0.5;" width="4" x="690.9323" y="498.39"/><text fill="#000000" font-family="sans-serif" font-size="14" lengthAdjust="spacing" textLength="185.8623" x="502.07" y="520.3851">Load Management Module</text></g><!--entity ED Database--><g id="elem_ED Database"><rect fill="#F1F1F1" height="46.2969" rx="2.5" ry="2.5" style="stroke:#181818;stroke-width:0.5;" width="130.877" x="31.56" y="638.69"/><rect fill="#F1F1F1" height="10" style="stroke:#181818;stroke-width:0.5;" width="15" x="142.437" y="643.69"/><rect fill="#F1F1F1" height="2" style="stroke:#181818;stroke-width:0.5;" width="4" x="140.437" y="645.69"/><rect fill="#F1F1F1" height="2" style="stroke:#181818;stroke-width:0.5;" width="4" x="140.437" y="649.69"/><text fill="#000000" font-family="sans-serif" font-size="14" lengthAdjust="spacing" textLength="90.877" x="46.56" y="671.6851">ED Database</text></g><!--entity User Management Database--><g id="elem_User Management Database"><rect fill="#F1F1F1" height="46.2969" rx="2.5" ry="2.5" style="stroke:#181818;stroke-width:0.5;" width="239.835" x="197.08" y="638.69"/><rect fill="#F1F1F1" height="10" style="stroke:#181818;stroke-width:0.5;" width="15" x="416.915" y="643.69"/><rect fill="#F1F1F1" height="2" style="stroke:#181818;stroke-width:0.5;" width="4" x="414.915" y="645.69"/><rect fill="#F1F1F1" height="2" style="stroke:#181818;stroke-width:0.5;" width="4" x="414.915" y="649.69"/><text fill="#000000" font-family="sans-serif" font-size="14" lengthAdjust="spacing" textLength="199.835" x="212.08" y="671.6851">User Management Database</text></g><!--entity Nurse/Clinician Hotline API--><g id="elem_Nurse/Clinician Hotline API"><rect fill="#F1F1F1" height="46.2969" rx="2.5" ry="2.5" style="stroke:#181818;stroke-width:0.5;" width="225.9785" x="295.01" y="773.98"/><rect fill="#F1F1F1" height="10" style="stroke:#181818;stroke-width:0.5;" width="15" x="500.9885" y="778.98"/><rect fill="#F1F1F1" height="2" style="stroke:#181818;stroke-width:0.5;" width="4" x="498.9885" y="780.98"/><rect fill="#F1F1F1" height="2" style="stroke:#181818;stroke-width:0.5;" width="4" x="498.9885" y="784.98"/><text fill="#000000" font-family="sans-serif" font-size="14" lengthAdjust="spacing" textLength="185.9785" x="310.01" y="806.9751">Nurse/Clinician Hotline API</text></g><!--entity Primary Care Clinics API--><g id="elem_Primary Care Clinics API"><rect fill="#F1F1F1" height="46.2969" rx="2.5" ry="2.5" style="stroke:#181818;stroke-width:0.5;" width="207.877" x="556.06" y="773.98"/><rect fill="#F1F1F1" height="10" style="stroke:#181818;stroke-width:0.5;" width="15" x="743.937" y="778.98"/><rect fill="#F1F1F1" height="2" style="stroke:#181818;stroke-width:0.5;" width="4" x="741.937" y="780.98"/><rect fill="#F1F1F1" height="2" style="stroke:#181818;stroke-width:0.5;" width="4" x="741.937" y="784.98"/><text fill="#000000" font-family="sans-serif" font-size="14" lengthAdjust="spacing" textLength="167.877" x="571.06" y="806.9751">Primary Care Clinics API</text></g><!--entity SMS/Email Notification Service--><g id="elem_SMS/Email Notification Service"><rect fill="#F1F1F1" height="46.2969" rx="2.5" ry="2.5" style="stroke:#181818;stroke-width:0.5;" width="254.3818" x="819.81" y="773.98"/><rect fill="#F1F1F1" height="10" style="stroke:#181818;stroke-width:0.5;" width="15" x="1054.1918" y="778.98"/><rect fill="#F1F1F1" height="2" style="stroke:#181818;stroke-width:0.5;" width="4" x="1052.1918" y="780.98"/><rect fill="#F1F1F1" height="2" style="stroke:#181818;stroke-width:0.5;" width="4" x="1052.1918" y="784.98"/><text fill="#000000" font-family="sans-serif" font-size="14" lengthAdjust="spacing" textLength="214.3818" x="834.81" y="806.9751">SMS/Email Notification Service</text></g><!--entity User--><g id="elem_User"><ellipse cx="493.9951" cy="14" fill="#F1F1F1" rx="8" ry="8" style="stroke:#181818;stroke-width:0.5;"/><path d="M493.9951,22 L493.9951,49 M480.9951,30 L506.9951,30 M493.9951,49 L480.9951,64 M493.9951,49 L506.9951,64 " fill="none" style="stroke:#181818;stroke-width:0.5;"/><text fill="#000000" font-family="sans-serif" font-size="14" lengthAdjust="spacing" textLength="31.9102" x="478.04" y="78.4951">User</text></g><!--link User to Mister Ed User Interface--><g id="link_User_Mister Ed User Interface"><path d="M494,82.29 C494,113.94 494,152.13 494,178.51 " fill="none" id="User-to-Mister Ed User Interface" style="stroke:#181818;stroke-width:1.0;"/><polygon fill="#181818" points="494,184.51,498,175.51,494,179.51,490,175.51,494,184.51" style="stroke:#181818;stroke-width:1.0;"/><text fill="#000000" font-family="sans-serif" font-size="13" lengthAdjust="spacing" textLength="41.7485" x="495" y="124.8669">HTTPS</text></g><!--link Mister Ed User Interface to API Gateway--><g id="link_Mister Ed User Interface_API Gateway"><path d="M494,231.3 C494,259.44 494,301.52 494,329.74 " fill="none" id="Mister Ed User Interface-to-API Gateway" style="stroke:#181818;stroke-width:1.0;"/><polygon fill="#181818" points="494,335.74,498,326.74,494,330.74,490,326.74,494,335.74" style="stroke:#181818;stroke-width:1.0;"/><text fill="#000000" font-family="sans-serif" font-size="13" lengthAdjust="spacing" textLength="79.5679" x="495" y="276.1569">HTTPS/REST</text></g><!--link API Gateway to Virtual Triage Module--><g id="link_API Gateway_Virtual Triage Module"><path d="M473.49,382.59 C447.66,410.74 407.597,454.3995 381.707,482.6095 " fill="none" id="API Gateway-to-Virtual Triage Module" style="stroke:#181818;stroke-width:1.0;"/><polygon fill="#181818" points="377.65,487.03,386.6825,483.1039,381.0308,483.3462,380.7884,477.6946,377.65,487.03" style="stroke:#181818;stroke-width:1.0;"/><text fill="#000000" font-family="sans-serif" font-size="13" lengthAdjust="spacing" textLength="71.3159" x="443" y="427.4569">HTTP/REST</text></g><!--link API Gateway to Load Management Module--><g id="link_API Gateway_Load Management Module"><path d="M509.87,382.59 C529.85,410.74 560.5164,453.9278 580.5464,482.1378 " fill="none" id="API Gateway-to-Load Management Module" style="stroke:#181818;stroke-width:1.0;"/><polygon fill="#181818" points="584.02,487.03,582.071,477.3759,581.1253,482.9531,575.5481,482.0074,584.02,487.03" style="stroke:#181818;stroke-width:1.0;"/><text fill="#000000" font-family="sans-serif" font-size="13" lengthAdjust="spacing" textLength="71.3159" x="544" y="427.4569">HTTP/REST</text></g><!--link Virtual Triage Module to ED Database--><g id="link_Virtual Triage Module_ED Database"><path d="M295.45,534.08 C260.38,548.13 216.34,567.85 180,590.69 C158.12,604.44 140.2756,619.476 124.3356,634.286 " fill="none" id="Virtual Triage Module-to-ED Database" style="stroke:#181818;stroke-width:1.0;"/><polygon fill="#181818" points="119.94,638.37,129.256,635.1744,123.603,634.9667,123.8107,629.3136,119.94,638.37" style="stroke:#181818;stroke-width:1.0;"/><text fill="#000000" font-family="sans-serif" font-size="13" lengthAdjust="spacing" textLength="31.8398" x="223" y="578.7569">JDBC</text></g><!--link Load Management Module to ED Database--><g id="link_Load Management Module_ED Database"><path d="M544.82,534.17 C522,542.72 495.06,551.8 470,557.69 C379.79,578.87 355.13,572.68 263,582.69 C226.16,586.69 214.15,576.29 180,590.69 C154.96,601.24 135.9643,617.7617 120.5143,634.0117 " fill="none" id="Load Management Module-to-ED Database" style="stroke:#181818;stroke-width:1.0;"/><polygon fill="#181818" points="116.38,638.36,125.4803,634.5937,119.8252,634.7364,119.6825,629.0813,116.38,638.36" style="stroke:#181818;stroke-width:1.0;"/><text fill="#000000" font-family="sans-serif" font-size="13" lengthAdjust="spacing" textLength="31.8398" x="433" y="578.7569">JDBC</text></g><!--link Load Management Module to User Management Database--><g id="link_Load Management Module_User Management Database"><path d="M563.04,534.08 C539.06,548.46 506.99,567.23 478,582.69 C440.99,602.42 403.6699,620.5273 371.5299,635.6373 " fill="none" id="Load Management Module-to-User Management Database" style="stroke:#181818;stroke-width:1.0;"/><polygon fill="#181818" points="366.1,638.19,375.9466,637.9808,370.6249,636.0627,372.543,630.741,366.1,638.19" style="stroke:#181818;stroke-width:1.0;"/><text fill="#000000" font-family="sans-serif" font-size="13" lengthAdjust="spacing" textLength="31.8398" x="509" y="578.7569">JDBC</text></g><!--link Virtual Triage Module to Nurse/Clinician Hotline API--><g id="link_Virtual Triage Module_Nurse/Clinician Hotline API"><path d="M437.02,534.17 C451.29,541.86 464.35,552.09 473,565.69 C516.2,633.53 460.4902,725.6185 428.9902,768.9085 " fill="none" id="Virtual Triage Module-to-Nurse/Clinician Hotline API" style="stroke:#181818;stroke-width:1.0;"/><polygon fill="#181818" points="425.46,773.76,433.9897,768.8362,428.4019,769.717,427.521,764.1292,425.46,773.76" style="stroke:#181818;stroke-width:1.0;"/><text fill="#000000" font-family="sans-serif" font-size="13" lengthAdjust="spacing" textLength="81.3452" x="490" y="666.3969">SOAP/HTTPS</text></g><!--link Load Management Module to Primary Care Clinics API--><g id="link_Load Management Module_Primary Care Clinics API"><path d="M604.71,533.87 C615.9,586.94 642.7422,714.2791 653.9922,767.6391 " fill="none" id="Load Management Module-to-Primary Care Clinics API" style="stroke:#181818;stroke-width:1.0;"/><polygon fill="#181818" points="655.23,773.51,657.2873,763.8784,654.1985,768.6176,649.4594,765.5288,655.23,773.51" style="stroke:#181818;stroke-width:1.0;"/><text fill="#000000" font-family="sans-serif" font-size="13" lengthAdjust="spacing" textLength="79.5679" x="642" y="666.3969">REST/HTTPS</text></g><!--link Load Management Module to SMS/Email Notification Service--><g id="link_Load Management Module_SMS/Email Notification Service"><path d="M642.15,534.18 C668.33,548.97 702.18,569.43 730,590.69 C807.91,650.22 884.9599,729.4495 922.0999,769.1295 " fill="none" id="Load Management Module-to-SMS/Email Notification Service" style="stroke:#181818;stroke-width:1.0;"/><polygon fill="#181818" points="926.2,773.51,922.9702,764.2058,922.7832,769.8596,917.1295,769.6726,926.2,773.51" style="stroke:#181818;stroke-width:1.0;"/><text fill="#000000" font-family="sans-serif" font-size="13" lengthAdjust="spacing" textLength="79.5679" x="864" y="666.3969">REST/HTTPS</text></g><!--SRC=[dPBDRe9058NtynGtxetxBfeeqcgZbXJQBXeNLxZQYSEC6GPRq_JTEmoWa0WctJ6SSxxSlspFvG4rfY1LGl3302OOxtTQvJBnb50Q5dptQIOYfq9JEY5T_fy8QsI_Z65ixFCr8ysOemmymKaQcDAHnpHmr8ybpmnfy1FdXBcqhot6j2uGPUoTDX2IFfAkCWzQMPjCO7mu21wZuKgk2s4SpE4H3NtXgP5lkDgSDwvDZW8YpN57i5H9BiY15WeJMAAqlzEYv5ewCwTeS8CPjO7-56h1OLnB3Sn5F8FyRzkmj4M49pk8DAj8grndDB83appcA66cZFqci1qwSg1vYle47cg2qfQLufcyKePlctrVXXukmv6V8XTmpUGOhlJXyBvdGt07ioWAGjPZSOJcMkhGwCKF8zQMdFdwKgfOPwfZOUrO1ze1cgkpgQVfn6ETr7ycEi-XZlUKMEJxZi8YmkTnCAesqbr70Ugy7aifHbLHRc5kd54BzWS0]--></g></svg>