<svg xmlns="http://www.w3.org/2000/svg" xmlns:xlink="http://www.w3.org/1999/xlink" contentStyleType="text/css" height="1646px" preserveAspectRatio="none" style="width:297px;height:1646px;background:#FFFFFF;" version="1.1" viewBox="0 0 297 1646" width="297px" zoomAndPan="magnify"><defs/><g><ellipse cx="149.02" cy="16" fill="#222222" rx="10" ry="10" style="stroke:#222222;stroke-width:1.0;"/><path d="M55.35,87 L242.6859,87 A12.5,12.5 0 0 1 255.1859,99.5 L255.1859,113.2969 L42.85,113.2969 L42.85,99.5 A12.5,12.5 0 0 1 55.35,87 " fill="#F1F1F1" style="stroke:#F1F1F1;stroke-width:1.0;"/><rect fill="none" height="153.5625" rx="12.5" ry="12.5" style="stroke:#181818;stroke-width:0.5;" width="212.3359" x="42.85" y="87"/><line style="stroke:#181818;stroke-width:0.5;" x1="42.85" x2="255.1859" y1="113.2969" y2="113.2969"/><text fill="#000000" font-family="sans-serif" font-size="14" lengthAdjust="spacing" textLength="25.5186" x="136.2587" y="104.9951">Idle</text><g id="Idle.WaitingForLoginRequest"><rect fill="#F1F1F1" height="50.2656" rx="12.5" ry="12.5" style="stroke:#181818;stroke-width:0.5;" width="191.3359" x="54.85" y="180.2969"/><line style="stroke:#181818;stroke-width:0.5;" x1="54.85" x2="246.1859" y1="206.5938" y2="206.5938"/><text fill="#000000" font-family="sans-serif" font-size="14" lengthAdjust="spacing" textLength="171.3359" x="64.85" y="198.292">WaitingForLoginRequest</text><text fill="#000000" font-family="sans-serif" font-size="12" lengthAdjust="spacing" textLength="144.8086" x="59.85" y="222.7324">waitingForLoginRequest</text></g><ellipse cx="150.52" cy="134.2969" fill="#222222" rx="10" ry="10" style="stroke:#222222;stroke-width:1.0;"/><!--link *start*Idle to WaitingForLoginRequest--><g id="link_*start*Idle_WaitingForLoginRequest"><path d="M150.52,144.6269 C150.52,153.6169 150.52,161.6269 150.52,173.8169 " fill="none" id="*start*Idle-to-WaitingForLoginRequest" style="stroke:#181818;stroke-width:1.0;"/><polygon fill="#181818" points="150.52,179.8169,154.52,170.8169,150.52,174.8169,146.52,170.8169,150.52,179.8169" style="stroke:#181818;stroke-width:1.0;"/></g><g id="LoginValidation"><rect fill="#F1F1F1" height="50.2656" rx="12.5" ry="12.5" style="stroke:#181818;stroke-width:0.5;" width="136.4609" x="67.79" y="317.56"/><line style="stroke:#181818;stroke-width:0.5;" x1="67.79" x2="204.2509" y1="343.8569" y2="343.8569"/><text fill="#000000" font-family="sans-serif" font-size="14" lengthAdjust="spacing" textLength="108.2334" x="81.9038" y="335.5551">LoginValidation</text><text fill="#000000" font-family="sans-serif" font-size="12" lengthAdjust="spacing" textLength="116.4609" x="72.79" y="359.9955">validateCredentials</text></g><g id="DisplayHomepage"><rect fill="#F1F1F1" height="50.2656" rx="12.5" ry="12.5" style="stroke:#181818;stroke-width:0.5;" width="147.9141" x="62.06" y="444.82"/><line style="stroke:#181818;stroke-width:0.5;" x1="62.06" x2="209.9741" y1="471.1169" y2="471.1169"/><text fill="#000000" font-family="sans-serif" font-size="14" lengthAdjust="spacing" textLength="127.9141" x="72.06" y="462.8151">DisplayHomepage</text><text fill="#000000" font-family="sans-serif" font-size="12" lengthAdjust="spacing" textLength="108.0176" x="67.06" y="487.2555">displayHomepage</text></g><g id="FetchingPatientQueue"><rect fill="#F1F1F1" height="50.2656" rx="12.5" ry="12.5" style="stroke:#181818;stroke-width:0.5;" width="175.7432" x="48.15" y="572.09"/><line style="stroke:#181818;stroke-width:0.5;" x1="48.15" x2="223.8932" y1="598.3869" y2="598.3869"/><text fill="#000000" font-family="sans-serif" font-size="14" lengthAdjust="spacing" textLength="155.7432" x="58.15" y="590.0851">FetchingPatientQueue</text><text fill="#000000" font-family="sans-serif" font-size="12" lengthAdjust="spacing" textLength="112.2598" x="53.15" y="614.5255">fetchPatientQueue</text></g><g id="DisplayPatientQueue"><rect fill="#F1F1F1" height="50.2656" rx="12.5" ry="12.5" style="stroke:#181818;stroke-width:0.5;" width="166.9727" x="53.53" y="699.35"/><line style="stroke:#181818;stroke-width:0.5;" x1="53.53" x2="220.5027" y1="725.6469" y2="725.6469"/><text fill="#000000" font-family="sans-serif" font-size="14" lengthAdjust="spacing" textLength="146.9727" x="63.53" y="717.3451">DisplayPatientQueue</text><text fill="#000000" font-family="sans-serif" font-size="12" lengthAdjust="spacing" textLength="124.3535" x="58.53" y="741.7855">displayPatientQueue</text></g><g id="FetchingPatientFile"><rect fill="#F1F1F1" height="50.2656" rx="12.5" ry="12.5" style="stroke:#181818;stroke-width:0.5;" width="154.1963" x="62.92" y="826.62"/><line style="stroke:#181818;stroke-width:0.5;" x1="62.92" x2="217.1163" y1="852.9169" y2="852.9169"/><text fill="#000000" font-family="sans-serif" font-size="14" lengthAdjust="spacing" textLength="134.1963" x="72.92" y="844.6151">FetchingPatientFile</text><text fill="#000000" font-family="sans-serif" font-size="12" lengthAdjust="spacing" textLength="93.791" x="67.92" y="869.0555">fetchPatientFile</text></g><g id="DisplayPatientFile"><rect fill="#F1F1F1" height="50.2656" rx="12.5" ry="12.5" style="stroke:#181818;stroke-width:0.5;" width="145.4258" x="67.31" y="953.89"/><line style="stroke:#181818;stroke-width:0.5;" x1="67.31" x2="212.7358" y1="980.1869" y2="980.1869"/><text fill="#000000" font-family="sans-serif" font-size="14" lengthAdjust="spacing" textLength="125.4258" x="77.31" y="971.8851">DisplayPatientFile</text><text fill="#000000" font-family="sans-serif" font-size="12" lengthAdjust="spacing" textLength="105.8848" x="72.31" y="996.3255">displayPatientFile</text></g><g id="FetchingVirtualTriage"><rect fill="#F1F1F1" height="50.2656" rx="12.5" ry="12.5" style="stroke:#181818;stroke-width:0.5;" width="170.7051" x="54.67" y="1081.15"/><line style="stroke:#181818;stroke-width:0.5;" x1="54.67" x2="225.3751" y1="1107.4469" y2="1107.4469"/><text fill="#000000" font-family="sans-serif" font-size="14" lengthAdjust="spacing" textLength="150.7051" x="64.67" y="1099.1451">FetchingVirtualTriage</text><text fill="#000000" font-family="sans-serif" font-size="12" lengthAdjust="spacing" textLength="107.9414" x="59.67" y="1123.5855">fetchVirtualTriage</text></g><g id="DisplayVirtualTriage"><rect fill="#F1F1F1" height="50.2656" rx="12.5" ry="12.5" style="stroke:#181818;stroke-width:0.5;" width="161.9346" x="61.05" y="1208.42"/><line style="stroke:#181818;stroke-width:0.5;" x1="61.05" x2="222.9846" y1="1234.7169" y2="1234.7169"/><text fill="#000000" font-family="sans-serif" font-size="14" lengthAdjust="spacing" textLength="141.9346" x="71.05" y="1226.4151">DisplayVirtualTriage</text><text fill="#000000" font-family="sans-serif" font-size="12" lengthAdjust="spacing" textLength="120.0352" x="66.05" y="1250.8555">displayVirtualTriage</text></g><g id="WaitTimeView"><rect fill="#F1F1F1" height="50.2656" rx="12.5" ry="12.5" style="stroke:#181818;stroke-width:0.5;" width="125.8555" x="98.09" y="1335.68"/><line style="stroke:#181818;stroke-width:0.5;" x1="98.09" x2="223.9455" y1="1361.9769" y2="1361.9769"/><text fill="#000000" font-family="sans-serif" font-size="14" lengthAdjust="spacing" textLength="100.0234" x="111.006" y="1353.6751">WaitTimeView</text><text fill="#000000" font-family="sans-serif" font-size="12" lengthAdjust="spacing" textLength="105.8555" x="103.09" y="1378.1155">displayWaitTimes</text></g><g id="Referral"><rect fill="#F1F1F1" height="50.2656" rx="12.5" ry="12.5" style="stroke:#181818;stroke-width:0.5;" width="118.5254" x="115.76" y="1462.95"/><line style="stroke:#181818;stroke-width:0.5;" x1="115.76" x2="234.2854" y1="1489.2469" y2="1489.2469"/><text fill="#000000" font-family="sans-serif" font-size="14" lengthAdjust="spacing" textLength="55.8633" x="147.0911" y="1480.9451">Referral</text><text fill="#000000" font-family="sans-serif" font-size="12" lengthAdjust="spacing" textLength="98.5254" x="120.76" y="1505.3855">updateEDQueue</text></g><g id="NotifyReferral"><rect fill="#F1F1F1" height="50.2656" rx="12.5" ry="12.5" style="stroke:#181818;stroke-width:0.5;" width="117.4941" x="173.27" y="1590.21"/><line style="stroke:#181818;stroke-width:0.5;" x1="173.27" x2="290.7641" y1="1616.5069" y2="1616.5069"/><text fill="#000000" font-family="sans-serif" font-size="14" lengthAdjust="spacing" textLength="97.4941" x="183.27" y="1608.2051">NotifyReferral</text><text fill="#000000" font-family="sans-serif" font-size="12" lengthAdjust="spacing" textLength="82.1953" x="178.27" y="1632.6455">notifyReferral</text></g><!--link *start* to Idle--><g id="link_*start*_Idle"><path d="M149.02,26.11 C149.02,38.64 149.02,56.4 149.02,80.63 " fill="none" id="*start*-to-Idle" style="stroke:#181818;stroke-width:1.0;"/><polygon fill="#181818" points="149.02,86.63,153.02,77.63,149.02,81.63,145.02,77.63,149.02,86.63" style="stroke:#181818;stroke-width:1.0;"/></g><!--link Idle to LoginValidation--><g id="link_Idle_LoginValidation"><path d="M42.6,236.15 C33.16,246.58 24.95,258.08 19.02,270.56 C6,297.93 29.2853,313.7605 61.6553,324.6905 " fill="none" id="Idle-to-LoginValidation" style="stroke:#181818;stroke-width:1.0;"/><polygon fill="#181818" points="67.34,326.61,60.0926,319.941,62.6028,325.0104,57.5333,327.5206,67.34,326.61" style="stroke:#181818;stroke-width:1.0;"/><text fill="#000000" font-family="sans-serif" font-size="13" lengthAdjust="spacing" textLength="85.0586" x="20.02" y="283.6269">loginRequest</text></g><!--link LoginValidation to Idle--><g id="link_LoginValidation_Idle"><path d="M137.8,317.38 C139.26,297.53 140.9709,274.3439 142.9909,246.8139 " fill="none" id="LoginValidation-to-Idle" style="stroke:#181818;stroke-width:1.0;"/><polygon fill="#181818" points="143.43,240.83,138.7821,249.5132,143.0641,245.8166,146.7607,250.0986,143.43,240.83" style="stroke:#181818;stroke-width:1.0;"/><text fill="#000000" font-family="sans-serif" font-size="13" lengthAdjust="spacing" textLength="115.248" x="142.02" y="283.6269">credentialsInvalid</text></g><!--link LoginValidation to DisplayHomepage--><g id="link_LoginValidation_DisplayHomepage"><path d="M136.02,368.14 C136.02,390.21 136.02,416.52 136.02,438.57 " fill="none" id="LoginValidation-to-DisplayHomepage" style="stroke:#181818;stroke-width:1.0;"/><polygon fill="#181818" points="136.02,444.57,140.02,435.57,136.02,439.57,132.02,435.57,136.02,444.57" style="stroke:#181818;stroke-width:1.0;"/><text fill="#000000" font-family="sans-serif" font-size="13" lengthAdjust="spacing" textLength="104.3745" x="137.02" y="410.8869">credentialsValid</text></g><!--link DisplayHomepage to FetchingPatientQueue--><g id="link_DisplayHomepage_FetchingPatientQueue"><path d="M134.92,495.47 C134.56,504.75 134.2,515.4 134.02,525.09 C133.73,540.65 133.9655,552.135 134.5255,565.865 " fill="none" id="DisplayHomepage-to-FetchingPatientQueue" style="stroke:#181818;stroke-width:1.0;"/><polygon fill="#181818" points="134.77,571.86,138.3999,562.7045,134.5662,566.8642,130.4065,563.0305,134.77,571.86" style="stroke:#181818;stroke-width:1.0;"/><text fill="#000000" font-family="sans-serif" font-size="13" lengthAdjust="spacing" textLength="127.1816" x="135.02" y="538.1569">selectPatientQueue</text></g><!--link FetchingPatientQueue to DisplayPatientQueue--><g id="link_FetchingPatientQueue_DisplayPatientQueue"><path d="M134.04,622.58 C133.16,636.32 132.44,653.79 133.02,669.35 C133.38,679.05 133.6195,683.7285 134.3495,693.0085 " fill="none" id="FetchingPatientQueue-to-DisplayPatientQueue" style="stroke:#181818;stroke-width:1.0;"/><polygon fill="#181818" points="134.82,698.99,138.1019,689.704,134.4279,694.0054,130.1265,690.3314,134.82,698.99" style="stroke:#181818;stroke-width:1.0;"/><text fill="#000000" font-family="sans-serif" font-size="13" lengthAdjust="spacing" textLength="128.8193" x="134.02" y="665.4169">returnPatientQueue</text></g><!--link DisplayPatientQueue to FetchingPatientFile--><g id="link_DisplayPatientQueue_FetchingPatientFile"><path d="M137.6,749.94 C138.13,772.01 138.7686,798.3117 139.2886,820.3717 " fill="none" id="DisplayPatientQueue-to-FetchingPatientFile" style="stroke:#181818;stroke-width:1.0;"/><polygon fill="#181818" points="139.43,826.37,143.2168,817.2782,139.3122,821.3714,135.219,817.4668,139.43,826.37" style="stroke:#181818;stroke-width:1.0;"/><text fill="#000000" font-family="sans-serif" font-size="13" lengthAdjust="spacing" textLength="107.1738" x="140.02" y="792.6869">selectPatientFile</text></g><!--link FetchingPatientFile to DisplayPatientFile--><g id="link_FetchingPatientFile_DisplayPatientFile"><path d="M140.02,877.2 C140.02,899.28 140.02,925.58 140.02,947.63 " fill="none" id="FetchingPatientFile-to-DisplayPatientFile" style="stroke:#181818;stroke-width:1.0;"/><polygon fill="#181818" points="140.02,953.63,144.02,944.63,140.02,948.63,136.02,944.63,140.02,953.63" style="stroke:#181818;stroke-width:1.0;"/><text fill="#000000" font-family="sans-serif" font-size="13" lengthAdjust="spacing" textLength="108.8115" x="141.02" y="919.9569">returnPatientFile</text></g><!--link DisplayPatientFile to FetchingVirtualTriage--><g id="link_DisplayPatientFile_FetchingVirtualTriage"><path d="M139.47,1004.54 C139.29,1013.82 139.11,1024.47 139.02,1034.15 C138.87,1049.71 138.9833,1061.1913 139.2733,1074.9213 " fill="none" id="DisplayPatientFile-to-FetchingVirtualTriage" style="stroke:#181818;stroke-width:1.0;"/><polygon fill="#181818" points="139.4,1080.92,143.2091,1071.8375,139.2944,1075.9211,135.2108,1072.0065,139.4,1080.92" style="stroke:#181818;stroke-width:1.0;"/><text fill="#000000" font-family="sans-serif" font-size="13" lengthAdjust="spacing" textLength="122.5034" x="140.02" y="1047.2169">selectVirtualTriage</text></g><!--link FetchingVirtualTriage to DisplayVirtualTriage--><g id="link_FetchingVirtualTriage_DisplayVirtualTriage"><path d="M137.93,1131.65 C137.02,1145.38 136.3,1162.86 137.02,1178.42 C137.47,1188.13 137.7674,1192.8193 138.6874,1202.0893 " fill="none" id="FetchingVirtualTriage-to-DisplayVirtualTriage" style="stroke:#181818;stroke-width:1.0;"/><polygon fill="#181818" points="139.28,1208.06,142.3716,1198.709,138.7862,1203.0844,134.4107,1199.499,139.28,1208.06" style="stroke:#181818;stroke-width:1.0;"/><text fill="#000000" font-family="sans-serif" font-size="13" lengthAdjust="spacing" textLength="124.1411" x="138.02" y="1174.4869">returnVirtualTriage</text></g><!--link DisplayVirtualTriage to WaitTimeView--><g id="link_DisplayVirtualTriage_WaitTimeView"><path d="M141.58,1259.06 C141.7,1272.85 142.46,1290.32 145.02,1305.68 C146.66,1315.54 147.7453,1320.4116 150.6053,1329.5916 " fill="none" id="DisplayVirtualTriage-to-WaitTimeView" style="stroke:#181818;stroke-width:1.0;"/><polygon fill="#181818" points="152.39,1335.32,153.5319,1325.5376,150.9028,1330.5463,145.894,1327.9171,152.39,1335.32" style="stroke:#181818;stroke-width:1.0;"/><text fill="#000000" font-family="sans-serif" font-size="13" lengthAdjust="spacing" textLength="116.6763" x="146.02" y="1301.7469">viewEDWaitTimes</text></g><!--link WaitTimeView to Referral--><g id="link_WaitTimeView_Referral"><path d="M163.75,1386.27 C166.22,1408.34 169.1647,1434.677 171.6247,1456.727 " fill="none" id="WaitTimeView-to-Referral" style="stroke:#181818;stroke-width:1.0;"/><polygon fill="#181818" points="172.29,1462.69,175.2674,1453.302,171.7356,1457.7208,167.3168,1454.189,172.29,1462.69" style="stroke:#181818;stroke-width:1.0;"/><text fill="#000000" font-family="sans-serif" font-size="13" lengthAdjust="spacing" textLength="77.1113" x="170.02" y="1429.0169">referPatient</text></g><!--link Referral to NotifyReferral--><g id="link_Referral_NotifyReferral"><path d="M168.75,1513.47 C166.35,1527.7 165.54,1545.64 172.02,1560.21 C177.09,1571.62 181.3901,1577.6712 190.7101,1585.8912 " fill="none" id="Referral-to-NotifyReferral" style="stroke:#181818;stroke-width:1.0;"/><polygon fill="#181818" points="195.21,1589.86,191.106,1580.9069,191.4601,1586.5527,185.8143,1586.9068,195.21,1589.86" style="stroke:#181818;stroke-width:1.0;"/><text fill="#000000" font-family="sans-serif" font-size="13" lengthAdjust="spacing" textLength="89.0449" x="173.02" y="1556.2769">notifyReferral</text></g><!--link NotifyReferral to Idle--><g id="link_NotifyReferral_Idle"><path d="M250.68,1589.93 C267.31,1565.7 289.02,1526.83 289.02,1489.08 C289.02,341.69 289.02,341.69 289.02,341.69 C289.02,303.7 272.8873,273.6012 247.9173,245.2712 " fill="none" id="NotifyReferral-to-Idle" style="stroke:#181818;stroke-width:1.0;"/><polygon fill="#181818" points="243.95,240.77,246.9002,250.1666,247.2561,244.521,252.9017,244.8769,243.95,240.77" style="stroke:#181818;stroke-width:1.0;"/></g><!--SRC=[XPF1JeGm48RlynISJVO5F7YH9MvYZ6usUDXuQEY0atGBbk9cOtntsmAXfIMUAFzyyq__Gizt7zbkzv0Tk43eDTFebZ_mpaYJR8fMFRSDoID-3TZhx3wx9WjmdepIVV0BO7qTuWeb4yIPfbOQJ-6ZSVbxVC57XHob9YRwYBB6EVMTOBUdze8TQz1qLak7OvDjRcC1Uv1k943io4Cb8gnXWRhwD8VmQcOOnxS11zlQey1A-oB01bfREI2Je1TwPQ1G3qg6iz8aZzKacGXMa8XoMIsADO5-AiUbi3ZJr1r46iSaEHw9ASwFKvBI0nCdHUCt7WC5wX9f3RjG8Pj6lM1hZp7QQk06onFo1ZpVnnDTi2Iysgja7ljy5dk0LNroNu2WRWsFMADIJBXjc-Lqg01UOUZiTTtduz_qqcggRrvP1iBIQEt_WrVr-Vx-0G00]--></g></svg>