<svg xmlns="http://www.w3.org/2000/svg" xmlns:xlink="http://www.w3.org/1999/xlink" contentStyleType="text/css" height="1180px" preserveAspectRatio="none" style="width:1171px;height:1180px;background:#FFFFFF;" version="1.1" viewBox="0 0 1171 1180" width="1171px" zoomAndPan="magnify"><defs/><g><rect fill="none" height="20.9531" style="stroke:none;stroke-width:1.0;" width="1138.9194" x="15" y="12.7451"/><rect fill="#F1F1F1" height="33.9688" rx="12.5" ry="12.5" style="stroke:#181818;stroke-width:0.5;" width="238.5547" x="21" y="38.6982"/><text fill="#000000" font-family="sans-serif" font-size="12" lengthAdjust="spacing" textLength="218.5547" x="31" y="59.8369">Feels the need for medical attention</text><rect fill="#F1F1F1" height="33.9688" rx="12.5" ry="12.5" style="stroke:#181818;stroke-width:0.5;" width="165.2891" x="57.6328" y="92.667"/><text fill="#000000" font-family="sans-serif" font-size="12" lengthAdjust="spacing" textLength="145.2891" x="67.6328" y="113.8057">Opens Mister Ed system</text><rect fill="#F1F1F1" height="33.9688" rx="12.5" ry="12.5" style="stroke:#181818;stroke-width:0.5;" width="106.5723" x="86.9912" y="146.6357"/><text fill="#000000" font-family="sans-serif" font-size="12" lengthAdjust="spacing" textLength="86.5723" x="96.9912" y="167.7744">Register/Login</text><rect fill="#F1F1F1" height="33.9688" rx="12.5" ry="12.5" style="stroke:#181818;stroke-width:0.5;" width="163.332" x="147.0181" y="660.3545"/><text fill="#000000" font-family="sans-serif" font-size="12" lengthAdjust="spacing" textLength="143.332" x="157.0181" y="681.4932">Receive non-ED referral</text><ellipse cx="228.6841" cy="725.3232" fill="none" rx="11" ry="11" style="stroke:#222222;stroke-width:1.0;"/><ellipse cx="228.6841" cy="725.3232" fill="#222222" rx="6" ry="6" style="stroke:#222222;stroke-width:1.0;"/><rect fill="#F1F1F1" height="33.9688" rx="12.5" ry="12.5" style="stroke:#181818;stroke-width:0.5;" width="146.6621" x="66.9463" y="810.292"/><text fill="#000000" font-family="sans-serif" font-size="12" lengthAdjust="spacing" textLength="126.6621" x="76.9463" y="831.4307">Follows triage advice</text><rect fill="#F1F1F1" height="33.9688" rx="12.5" ry="12.5" style="stroke:#181818;stroke-width:0.5;" width="198.8281" x="40.8633" y="864.2607"/><text fill="#000000" font-family="sans-serif" font-size="12" lengthAdjust="spacing" textLength="178.8281" x="50.8633" y="885.3994">Waits at home for notification</text><rect fill="#F1F1F1" height="33.9688" rx="12.5" ry="12.5" style="stroke:#181818;stroke-width:0.5;" width="184.2383" x="48.1582" y="1134.1045"/><text fill="#000000" font-family="sans-serif" font-size="12" lengthAdjust="spacing" textLength="164.2383" x="58.1582" y="1155.2432">Arrives at ED when notified</text><line style="stroke:#000000;stroke-width:1.5;" x1="15" x2="15" y1="12.7451" y2="1168.0732"/><polygon fill="#F1F1F1" points="421.0588,200.6045,532.031,200.6045,544.031,212.6045,532.031,224.6045,421.0588,224.6045,409.0588,212.6045,421.0588,200.6045" style="stroke:#181818;stroke-width:0.5;"/><text fill="#000000" font-family="sans-serif" font-size="11" lengthAdjust="spacing" textLength="110.9722" x="421.0588" y="216.4126">Already Registered?</text><text fill="#000000" font-family="sans-serif" font-size="11" lengthAdjust="spacing" textLength="19.0083" x="390.0505" y="210.0103">yes</text><text fill="#000000" font-family="sans-serif" font-size="11" lengthAdjust="spacing" textLength="13.7017" x="544.031" y="210.0103">no</text><rect fill="#F1F1F1" height="33.9688" rx="12.5" ry="12.5" style="stroke:#181818;stroke-width:0.5;" width="98.7207" x="349.6985" y="234.6045"/><text fill="#000000" font-family="sans-serif" font-size="12" lengthAdjust="spacing" textLength="78.7207" x="359.6985" y="255.7432">Login Patient</text><rect fill="#F1F1F1" height="33.9688" rx="12.5" ry="12.5" style="stroke:#181818;stroke-width:0.5;" width="116.082" x="495.99" y="234.6045"/><text fill="#000000" font-family="sans-serif" font-size="12" lengthAdjust="spacing" textLength="96.082" x="505.99" y="255.7432">Register Patient</text><polygon fill="#F1F1F1" points="476.5449,274.5732,488.5449,286.5732,476.5449,298.5732,464.5449,286.5732,476.5449,274.5732" style="stroke:#181818;stroke-width:0.5;"/><rect fill="#F1F1F1" height="33.9688" rx="12.5" ry="12.5" style="stroke:#181818;stroke-width:0.5;" width="151.1738" x="400.958" y="318.5732"/><text fill="#000000" font-family="sans-serif" font-size="12" lengthAdjust="spacing" textLength="131.1738" x="410.958" y="339.7119">Conduct virtual triage</text><rect fill="#F1F1F1" height="33.9688" rx="12.5" ry="12.5" style="stroke:#181818;stroke-width:0.5;" width="194.1758" x="379.457" y="480.4795"/><text fill="#000000" font-family="sans-serif" font-size="12" lengthAdjust="spacing" textLength="174.1758" x="389.457" y="501.6182">Provides advice (GP/OTC/ED)</text><polygon fill="#F1F1F1" points="427.7996,534.4482,525.2903,534.4482,537.2903,546.4482,525.2903,558.4482,427.7996,558.4482,415.7996,546.4482,427.7996,534.4482" style="stroke:#181818;stroke-width:0.5;"/><text fill="#000000" font-family="sans-serif" font-size="11" lengthAdjust="spacing" textLength="97.4907" x="427.7996" y="550.2563">ED visit required?</text><text fill="#000000" font-family="sans-serif" font-size="11" lengthAdjust="spacing" textLength="19.2178" x="396.5818" y="543.854">Yes</text><text fill="#000000" font-family="sans-serif" font-size="11" lengthAdjust="spacing" textLength="13.7017" x="537.2903" y="543.854">no</text><rect fill="#F1F1F1" height="33.9688" rx="12.5" ry="12.5" style="stroke:#181818;stroke-width:0.5;" width="135.5762" x="320.3501" y="578.4482"/><text fill="#000000" font-family="sans-serif" font-size="12" lengthAdjust="spacing" textLength="115.5762" x="330.3501" y="599.5869">View ED wait times</text><rect fill="#F1F1F1" height="47.9375" rx="12.5" ry="12.5" style="stroke:#181818;stroke-width:0.5;" width="123.5234" x="503.1899" y="578.4482"/><text fill="#000000" font-family="sans-serif" font-size="12" lengthAdjust="spacing" textLength="95.707" x="513.1899" y="599.5869">Patient directed</text><text fill="#000000" font-family="sans-serif" font-size="12" lengthAdjust="spacing" textLength="99.709" x="517.0044" y="613.5557">to GP/OTC/Other</text><rect fill="#F1F1F1" height="33.9688" rx="12.5" ry="12.5" style="stroke:#181818;stroke-width:0.5;" width="151.7832" x="400.6533" y="756.3232"/><text fill="#000000" font-family="sans-serif" font-size="12" lengthAdjust="spacing" textLength="131.7832" x="410.6533" y="777.4619">Provide ED wait times</text><rect fill="#F1F1F1" height="33.9688" rx="12.5" ry="12.5" style="stroke:#181818;stroke-width:0.5;" width="200.9785" x="376.0557" y="1080.1357"/><text fill="#000000" font-family="sans-serif" font-size="12" lengthAdjust="spacing" textLength="180.9785" x="386.0557" y="1101.2744">Notifies patient when to come</text><line style="stroke:#000000;stroke-width:1.5;" x1="314.3501" x2="314.3501" y1="12.7451" y2="1168.0732"/><rect fill="#F1F1F1" height="33.9688" rx="12.5" ry="12.5" style="stroke:#181818;stroke-width:0.5;" width="144.6758" x="666.3242" y="372.542"/><text fill="#000000" font-family="sans-serif" font-size="12" lengthAdjust="spacing" textLength="124.6758" x="676.3242" y="393.6807">Review virtual triage</text><rect fill="#F1F1F1" height="33.9688" rx="12.5" ry="12.5" style="stroke:#181818;stroke-width:0.5;" width="113.2402" x="682.042" y="426.5107"/><text fill="#000000" font-family="sans-serif" font-size="12" lengthAdjust="spacing" textLength="93.2402" x="692.042" y="447.6494">Provide referral</text><line style="stroke:#000000;stroke-width:1.5;" x1="630.7134" x2="630.7134" y1="12.7451" y2="1168.0732"/><rect fill="#F1F1F1" height="33.9688" rx="12.5" ry="12.5" style="stroke:#181818;stroke-width:0.5;" width="150.2949" x="850.6108" y="646.3857"/><text fill="#000000" font-family="sans-serif" font-size="12" lengthAdjust="spacing" textLength="130.2949" x="860.6108" y="667.5244">Update ED wait times</text><rect fill="#F1F1F1" height="33.9688" rx="12.5" ry="12.5" style="stroke:#181818;stroke-width:0.5;" width="267.7871" x="880.2715" y="918.2295"/><text fill="#000000" font-family="sans-serif" font-size="12" lengthAdjust="spacing" textLength="247.7871" x="890.2715" y="939.3682">Receives virtual registration from patient</text><rect fill="#F1F1F1" height="33.9688" rx="12.5" ry="12.5" style="stroke:#181818;stroke-width:0.5;" width="236.5859" x="895.8721" y="972.1982"/><text fill="#000000" font-family="sans-serif" font-size="12" lengthAdjust="spacing" textLength="216.5859" x="905.8721" y="993.3369">Updates patient status in the queue</text><rect fill="#F1F1F1" height="33.9688" rx="12.5" ry="12.5" style="stroke:#181818;stroke-width:0.5;" width="249.166" x="889.582" y="1026.167"/><text fill="#000000" font-family="sans-serif" font-size="12" lengthAdjust="spacing" textLength="229.166" x="899.582" y="1047.3057">Notifies Mister Ed of patient readiness</text><line style="stroke:#000000;stroke-width:1.5;" x1="844.6108" x2="844.6108" y1="12.7451" y2="1168.0732"/><line style="stroke:#000000;stroke-width:1.5;" x1="1152.0586" x2="1152.0586" y1="12.7451" y2="1168.0732"/><line style="stroke:#181818;stroke-width:1.0;" x1="140.2773" x2="140.2773" y1="72.667" y2="92.667"/><polygon fill="#181818" points="136.2773,82.667,140.2773,92.667,144.2773,82.667,140.2773,86.667" style="stroke:#181818;stroke-width:1.0;"/><line style="stroke:#181818;stroke-width:1.0;" x1="140.2773" x2="140.2773" y1="126.6357" y2="146.6357"/><polygon fill="#181818" points="136.2773,136.6357,140.2773,146.6357,144.2773,136.6357,140.2773,140.6357" style="stroke:#181818;stroke-width:1.0;"/><line style="stroke:#181818;stroke-width:1.0;" x1="228.6841" x2="228.6841" y1="694.3232" y2="714.3232"/><polygon fill="#181818" points="224.6841,704.3232,228.6841,714.3232,232.6841,704.3232,228.6841,708.3232" style="stroke:#181818;stroke-width:1.0;"/><line style="stroke:#181818;stroke-width:1.0;" x1="140.2773" x2="140.2773" y1="844.2607" y2="864.2607"/><polygon fill="#181818" points="136.2773,854.2607,140.2773,864.2607,144.2773,854.2607,140.2773,858.2607" style="stroke:#181818;stroke-width:1.0;"/><line style="stroke:#181818;stroke-width:1.0;" x1="409.0588" x2="399.0588" y1="212.6045" y2="212.6045"/><line style="stroke:#181818;stroke-width:1.0;" x1="399.0588" x2="399.0588" y1="212.6045" y2="234.6045"/><polygon fill="#181818" points="395.0588,224.6045,399.0588,234.6045,403.0588,224.6045,399.0588,228.6045" style="stroke:#181818;stroke-width:1.0;"/><line style="stroke:#181818;stroke-width:1.0;" x1="544.031" x2="554.031" y1="212.6045" y2="212.6045"/><line style="stroke:#181818;stroke-width:1.0;" x1="554.031" x2="554.031" y1="212.6045" y2="234.6045"/><polygon fill="#181818" points="550.031,224.6045,554.031,234.6045,558.031,224.6045,554.031,228.6045" style="stroke:#181818;stroke-width:1.0;"/><line style="stroke:#181818;stroke-width:1.0;" x1="399.0588" x2="399.0588" y1="268.5732" y2="286.5732"/><line style="stroke:#181818;stroke-width:1.0;" x1="399.0588" x2="464.5449" y1="286.5732" y2="286.5732"/><polygon fill="#181818" points="454.5449,282.5732,464.5449,286.5732,454.5449,290.5732,458.5449,286.5732" style="stroke:#181818;stroke-width:1.0;"/><line style="stroke:#181818;stroke-width:1.0;" x1="554.031" x2="554.031" y1="268.5732" y2="286.5732"/><line style="stroke:#181818;stroke-width:1.0;" x1="554.031" x2="488.5449" y1="286.5732" y2="286.5732"/><polygon fill="#181818" points="498.5449,282.5732,488.5449,286.5732,498.5449,290.5732,494.5449,286.5732" style="stroke:#181818;stroke-width:1.0;"/><line style="stroke:#181818;stroke-width:1.0;" x1="476.5449" x2="476.5449" y1="298.5732" y2="318.5732"/><polygon fill="#181818" points="472.5449,308.5732,476.5449,318.5732,480.5449,308.5732,476.5449,312.5732" style="stroke:#181818;stroke-width:1.0;"/><line style="stroke:#181818;stroke-width:1.0;" x1="415.7996" x2="388.1382" y1="546.4482" y2="546.4482"/><line style="stroke:#181818;stroke-width:1.0;" x1="388.1382" x2="388.1382" y1="546.4482" y2="578.4482"/><polygon fill="#181818" points="384.1382,568.4482,388.1382,578.4482,392.1382,568.4482,388.1382,572.4482" style="stroke:#181818;stroke-width:1.0;"/><line style="stroke:#181818;stroke-width:1.0;" x1="537.2903" x2="564.9517" y1="546.4482" y2="546.4482"/><line style="stroke:#181818;stroke-width:1.0;" x1="564.9517" x2="564.9517" y1="546.4482" y2="578.4482"/><polygon fill="#181818" points="560.9517,568.4482,564.9517,578.4482,568.9517,568.4482,564.9517,572.4482" style="stroke:#181818;stroke-width:1.0;"/><line style="stroke:#181818;stroke-width:1.0;" x1="476.5449" x2="476.5449" y1="514.4482" y2="534.4482"/><polygon fill="#181818" points="472.5449,524.4482,476.5449,534.4482,480.5449,524.4482,476.5449,528.4482" style="stroke:#181818;stroke-width:1.0;"/><line style="stroke:#181818;stroke-width:1.0;" x1="925.7583" x2="925.7583" y1="680.3545" y2="740.3232"/><line style="stroke:#181818;stroke-width:1.0;" x1="925.7583" x2="476.5449" y1="740.3232" y2="740.3232"/><line style="stroke:#181818;stroke-width:1.0;" x1="476.5449" x2="476.5449" y1="740.3232" y2="756.3232"/><polygon fill="#181818" points="472.5449,746.3232,476.5449,756.3232,480.5449,746.3232,476.5449,750.3232" style="stroke:#181818;stroke-width:1.0;"/><line style="stroke:#181818;stroke-width:1.0;" x1="738.6621" x2="738.6621" y1="406.5107" y2="426.5107"/><polygon fill="#181818" points="734.6621,416.5107,738.6621,426.5107,742.6621,416.5107,738.6621,420.5107" style="stroke:#181818;stroke-width:1.0;"/><line style="stroke:#181818;stroke-width:1.0;" x1="1014.165" x2="1014.165" y1="952.1982" y2="972.1982"/><polygon fill="#181818" points="1010.165,962.1982,1014.165,972.1982,1018.165,962.1982,1014.165,966.1982" style="stroke:#181818;stroke-width:1.0;"/><line style="stroke:#181818;stroke-width:1.0;" x1="1014.165" x2="1014.165" y1="1006.167" y2="1026.167"/><polygon fill="#181818" points="1010.165,1016.167,1014.165,1026.167,1018.165,1016.167,1014.165,1020.167" style="stroke:#181818;stroke-width:1.0;"/><line style="stroke:#181818;stroke-width:1.0;" x1="140.2773" x2="140.2773" y1="180.6045" y2="185.6045"/><line style="stroke:#181818;stroke-width:1.0;" x1="140.2773" x2="476.5449" y1="185.6045" y2="185.6045"/><line style="stroke:#181818;stroke-width:1.0;" x1="476.5449" x2="476.5449" y1="185.6045" y2="200.6045"/><polygon fill="#181818" points="472.5449,190.6045,476.5449,200.6045,480.5449,190.6045,476.5449,194.6045" style="stroke:#181818;stroke-width:1.0;"/><line style="stroke:#181818;stroke-width:1.0;" x1="476.5449" x2="476.5449" y1="352.542" y2="357.542"/><line style="stroke:#181818;stroke-width:1.0;" x1="476.5449" x2="738.6621" y1="357.542" y2="357.542"/><line style="stroke:#181818;stroke-width:1.0;" x1="738.6621" x2="738.6621" y1="357.542" y2="372.542"/><polygon fill="#181818" points="734.6621,362.542,738.6621,372.542,742.6621,362.542,738.6621,366.542" style="stroke:#181818;stroke-width:1.0;"/><line style="stroke:#181818;stroke-width:1.0;" x1="738.6621" x2="738.6621" y1="460.4795" y2="465.4795"/><line style="stroke:#181818;stroke-width:1.0;" x1="738.6621" x2="476.5449" y1="465.4795" y2="465.4795"/><line style="stroke:#181818;stroke-width:1.0;" x1="476.5449" x2="476.5449" y1="465.4795" y2="480.4795"/><polygon fill="#181818" points="472.5449,470.4795,476.5449,480.4795,480.5449,470.4795,476.5449,474.4795" style="stroke:#181818;stroke-width:1.0;"/><line style="stroke:#181818;stroke-width:1.0;" x1="388.1382" x2="388.1382" y1="612.417" y2="629.917"/><line style="stroke:#181818;stroke-width:1.0;" x1="388.1382" x2="925.7583" y1="629.917" y2="629.917"/><line style="stroke:#181818;stroke-width:1.0;" x1="925.7583" x2="925.7583" y1="629.917" y2="646.3857"/><polygon fill="#181818" points="921.7583,636.3857,925.7583,646.3857,929.7583,636.3857,925.7583,640.3857" style="stroke:#181818;stroke-width:1.0;"/><line style="stroke:#181818;stroke-width:1.0;" x1="564.9517" x2="564.9517" y1="626.3857" y2="642.8545"/><line style="stroke:#181818;stroke-width:1.0;" x1="564.9517" x2="228.6841" y1="642.8545" y2="642.8545"/><line style="stroke:#181818;stroke-width:1.0;" x1="228.6841" x2="228.6841" y1="642.8545" y2="660.3545"/><polygon fill="#181818" points="224.6841,650.3545,228.6841,660.3545,232.6841,650.3545,228.6841,654.3545" style="stroke:#181818;stroke-width:1.0;"/><line style="stroke:#181818;stroke-width:1.0;" x1="476.5449" x2="476.5449" y1="790.292" y2="795.292"/><line style="stroke:#181818;stroke-width:1.0;" x1="476.5449" x2="140.2773" y1="795.292" y2="795.292"/><line style="stroke:#181818;stroke-width:1.0;" x1="140.2773" x2="140.2773" y1="795.292" y2="810.292"/><polygon fill="#181818" points="136.2773,800.292,140.2773,810.292,144.2773,800.292,140.2773,804.292" style="stroke:#181818;stroke-width:1.0;"/><line style="stroke:#181818;stroke-width:1.0;" x1="140.2773" x2="140.2773" y1="898.2295" y2="903.2295"/><line style="stroke:#181818;stroke-width:1.0;" x1="140.2773" x2="1014.165" y1="903.2295" y2="903.2295"/><line style="stroke:#181818;stroke-width:1.0;" x1="1014.165" x2="1014.165" y1="903.2295" y2="918.2295"/><polygon fill="#181818" points="1010.165,908.2295,1014.165,918.2295,1018.165,908.2295,1014.165,912.2295" style="stroke:#181818;stroke-width:1.0;"/><line style="stroke:#181818;stroke-width:1.0;" x1="1014.165" x2="1014.165" y1="1060.1357" y2="1065.1357"/><line style="stroke:#181818;stroke-width:1.0;" x1="1014.165" x2="476.5449" y1="1065.1357" y2="1065.1357"/><line style="stroke:#181818;stroke-width:1.0;" x1="476.5449" x2="476.5449" y1="1065.1357" y2="1080.1357"/><polygon fill="#181818" points="472.5449,1070.1357,476.5449,1080.1357,480.5449,1070.1357,476.5449,1074.1357" style="stroke:#181818;stroke-width:1.0;"/><line style="stroke:#181818;stroke-width:1.0;" x1="476.5449" x2="476.5449" y1="1114.1045" y2="1119.1045"/><line style="stroke:#181818;stroke-width:1.0;" x1="476.5449" x2="140.2773" y1="1119.1045" y2="1119.1045"/><line style="stroke:#181818;stroke-width:1.0;" x1="140.2773" x2="140.2773" y1="1119.1045" y2="1134.1045"/><polygon fill="#181818" points="136.2773,1124.1045,140.2773,1134.1045,144.2773,1124.1045,140.2773,1128.1045" style="stroke:#181818;stroke-width:1.0;"/><text fill="#000000" font-family="sans-serif" font-size="18" lengthAdjust="spacing" textLength="63.4834" x="132.9333" y="29.4531">Patient</text><text fill="#000000" font-family="sans-serif" font-size="18" lengthAdjust="spacing" textLength="159.2402" x="392.9116" y="29.4531">Mister ED System</text><text fill="#000000" font-family="sans-serif" font-size="18" lengthAdjust="spacing" textLength="203.8975" x="635.7134" y="29.4531">Virtual Triage Clinician</text><text fill="#000000" font-family="sans-serif" font-size="18" lengthAdjust="spacing" textLength="261.4834" x="867.593" y="29.4531">Emergency Department (ED)</text><!--SRC=[VPD1Rzim38Nl_XKy9eSXz_Wm54dQoxO4RTTYm2w2HQS4RCcLQ0S1_EDBCRQRjcbo2gH7yV7ZSxypJEYupm2MjuXL17v1S8WMIX-WHak5gS0mYugyovDmsw2By9iYOu2DXNYKVxLUtUDUZnU__9vKdVMZS0qFAkmpAcStLK1ZZp0MeFqvJxqTp8uOvzbI7u31Nvw9DOIPyt8pbfnTEajbTgcJM5fvPzk2eQF0hSp2WSmUSv4_3IUFUWAhYXmLP5oVUdI4Xoyrortm7Lc4W2M6OAhykww3C8An7HLY_Mwts3wk5flrF56X4cPIq54abiTUMpedy2yH0Fajdv8B4HwCw9XgZ7dMRseCUtJ54TROcC2rG4ZFpSNutyOQniybYPx2ksXMt9v8WXKR1Slo_pjW3uFdhRWAqdSAI-9J87MI5Ez-o5llE9BhoBwvifC9uYUJ6fOFWVHLvGzne3-GL9rSFakbq6LuyJLgM9rdAYMkfvnUnQH9rGdYjEEWiGfQ3cNmDJHZlaH-uXh7CvdHS1j18fe-cDSMMrJT7pM1vv-7BwUgb7bo6DCMByPcAXyh3YaGief2fim_uha9GGSG1eba4fuGeCtV0000]--></g></svg>